<?xml version="1.0" standalone="no"?>
<!DOCTYPE svg PUBLIC "-//W3C//DTD SVG 20010904//EN"
 "http://www.w3.org/TR/2001/REC-SVG-20010904/DTD/svg10.dtd">
<svg version="1.0" xmlns="http://www.w3.org/2000/svg"
 width="1280.000000pt" height="1180.000000pt" viewBox="0 0 1280.000000 1180.000000"
 preserveAspectRatio="xMidYMid meet">
<g transform="translate(0.000000,1180.000000) scale(0.100000,-0.100000)"
fill="#000000" stroke="none">
<path d="M6105 11790 c-44 -5 -170 -13 -280 -19 -2157 -119 -4232 -1003 -5722
-2437 l-93 -89 408 -627 c224 -345 409 -628 412 -628 3 0 52 52 110 116 493
546 1255 1076 2055 1429 740 327 1582 548 2442 640 568 61 1307 60 1878 0
1278 -137 2476 -548 3435 -1179 363 -239 635 -460 937 -763 l213 -212 69 97
c665 939 811 1147 811 1156 0 14 -253 249 -415 387 -1425 1211 -3228 1942
-5180 2099 -398 32 -922 46 -1080 30z"/>
<path d="M5960 8429 c-1609 -106 -3059 -710 -4068 -1694 l-154 -150 428 -662
c236 -364 432 -662 436 -663 3 0 46 48 94 108 234 287 616 618 957 828 719
445 1544 698 2457 754 1054 64 2145 -184 2995 -683 338 -198 683 -467 901
-702 73 -79 85 -88 98 -75 31 32 876 1234 876 1245 0 7 -42 50 -92 97 -1035
942 -2420 1497 -3993 1598 -184 12 -751 11 -935 -1z"/>
<path d="M5955 5060 c-947 -80 -1766 -419 -2503 -1038 l-34 -28 356 -549 c196
-303 362 -554 370 -559 9 -6 37 10 91 54 403 320 950 564 1471 655 271 48 676
60 940 30 574 -67 1086 -260 1552 -587 63 -44 115 -78 116 -76 22 26 758 1071
761 1080 3 8 -34 44 -90 87 -233 184 -460 329 -720 462 -480 246 -946 387
-1500 454 -151 19 -658 28 -810 15z"/>
<path d="M6001 2099 c-253 -53 -468 -189 -623 -394 -321 -422 -281 -1011 93
-1384 170 -170 359 -262 633 -307 104 -17 113 -17 225 1 192 29 335 81 468
169 562 370 638 1171 155 1638 -158 153 -340 246 -551 283 -116 21 -285 18
-400 -6z"/>
</g>
</svg>
